<?xml version="1.0" encoding="utf-8"?>
<!-- Generator: Adobe Illustrator 16.0.0, SVG Export Plug-In . SVG Version: 6.00 Build 0)  -->
<!DOCTYPE svg PUBLIC "-//W3C//DTD SVG 1.1//EN" "http://www.w3.org/Graphics/SVG/1.1/DTD/svg11.dtd">
<svg version="1.1" id="Layer_1" xmlns="http://www.w3.org/2000/svg" xmlns:xlink="http://www.w3.org/1999/xlink" x="0px" y="0px"
	 width="100px" height="100px" viewBox="0 0 100 100" enable-background="new 0 0 100 100" xml:space="preserve">
<path fill="#EC2227" d="M15.993,41.671l2.043,6.304l6.638-0.015l-5.383,3.905l2.072,6.297l-5.369-3.899l-5.347,3.899l2.057-6.297
	L7.336,47.96l6.631,0.015L15.993,41.671L15.993,41.671z M33.348,41.671l2.035,6.304l6.646-0.015l-5.383,3.905l2.071,6.297
	l-5.369-3.899l-5.354,3.899l2.065-6.297l-5.377-3.905l6.631,0.015L33.348,41.671L33.348,41.671z M33.348,58.174l2.035,6.303
	l6.646-0.014l-5.383,3.897l2.071,6.31l-5.369-3.912l-5.354,3.912l2.065-6.31l-5.377-3.897l6.631,0.014L33.348,58.174L33.348,58.174z
	 M33.348,25.21l2.035,6.317l6.646-0.014l-5.383,3.89l2.071,6.31l-5.369-3.919l-5.354,3.919l2.065-6.31l-5.377-3.89l6.631,0.014
	L33.348,25.21L33.348,25.21z M50.7,41.671l2.035,6.304l6.646-0.015L54,51.865l2.057,6.297l-5.355-3.899l-5.354,3.899l2.062-6.297
	l-5.375-3.905l6.629,0.015L50.7,41.671L50.7,41.671z M50.7,8.708l2.035,6.303l6.646-0.007L54,18.909l2.057,6.302l-5.355-3.918
	l-5.354,3.918l2.062-6.302l-5.375-3.904l6.629,0.007L50.7,8.708L50.7,8.708z M68.047,41.671l2.043,6.304l6.631-0.015l-5.368,3.905
	l2.056,6.297l-5.359-3.899l-5.355,3.899l2.059-6.297l-5.369-3.905l6.638,0.015L68.047,41.671L68.047,41.671z M85.4,41.671
	l2.034,6.304l6.639-0.015l-5.376,3.905l2.064,6.297L85.4,54.263l-5.354,3.899l2.058-6.297l-5.376-3.905l6.631,0.015L85.4,41.671
	L85.4,41.671z M50.7,58.174l2.035,6.303l6.646-0.014L54,68.36l2.057,6.31l-5.355-3.912l-5.354,3.912l2.062-6.31l-5.375-3.897
	l6.629,0.014L50.7,58.174L50.7,58.174z M50.7,25.21l2.035,6.317l6.646-0.014L54,35.403l2.057,6.31l-5.355-3.919l-5.354,3.919
	l2.062-6.31l-5.375-3.89l6.629,0.014L50.7,25.21L50.7,25.21z M85.4,58.174l2.034,6.303l6.639-0.014l-5.376,3.897l2.064,6.31
	L85.4,70.758l-5.354,3.912l2.058-6.31l-5.376-3.897l6.631,0.014L85.4,58.174L85.4,58.174z M85.4,25.21l2.034,6.317l6.639-0.014
	l-5.376,3.89l2.064,6.31L85.4,37.794l-5.354,3.919l2.058-6.31l-5.376-3.89l6.631,0.014L85.4,25.21L85.4,25.21z M50.7,74.67
	l2.035,6.316l6.646-0.006L54,84.861l2.057,6.305l-5.355-3.912l-5.354,3.912l2.062-6.305l-5.375-3.881l6.629,0.006L50.7,74.67
	L50.7,74.67z"/>
</svg>
