<?xml version="1.0" encoding="iso-8859-1"?>
<!-- Generator: Adobe Illustrator 16.0.0, SVG Export Plug-In . SVG Version: 6.00 Build 0)  -->
<!DOCTYPE svg PUBLIC "-//W3C//DTD SVG 1.1//EN" "http://www.w3.org/Graphics/SVG/1.1/DTD/svg11.dtd">
<svg version="1.1"
	 id="svg2" xmlns:dc="http://purl.org/dc/elements/1.1/" xmlns:cc="http://creativecommons.org/ns#" xmlns:rdf="http://www.w3.org/1999/02/22-rdf-syntax-ns#" xmlns:svg="http://www.w3.org/2000/svg" xmlns:sodipodi="http://sodipodi.sourceforge.net/DTD/sodipodi-0.dtd" xmlns:inkscape="http://www.inkscape.org/namespaces/inkscape" sodipodi:docname="logo+title.svg" inkscape:version="0.48.0 r9654"
	 xmlns="http://www.w3.org/2000/svg" xmlns:xlink="http://www.w3.org/1999/xlink" x="0px" y="0px" width="1017.716px"
	 height="311.856px" viewBox="10 10 1017.716 311.856" style="enable-background:new 10 10 1017.716 311.856;" xml:space="preserve"
	>
<sodipodi:namedview  fit-margin-left="10" guidetolerance="10" fit-margin-top="10" objecttolerance="10" gridtolerance="10" pagecolor="#ffffff" bordercolor="#666666" borderopacity="1" id="namedview4" showgrid="false" inkscape:zoom="1" inkscape:cx="604.50836" inkscape:cy="182.53093" inkscape:window-y="541" inkscape:pageopacity="0" inkscape:pageshadow="2" inkscape:window-width="1881" inkscape:window-maximized="0" inkscape:window-x="2091" inkscape:window-height="824" inkscape:current-layer="g10" fit-margin-right="10" fit-margin-bottom="10">
	</sodipodi:namedview>
<g id="g10" transform="matrix(1.25,0,0,-1.25,10,321.85516)" inkscape:groupmode="layer" inkscape:label="ink_ext_XXXXXX">
	<g id="g3393">
		<path id="path22" inkscape:connector-curvature="0" style="fill:#D33833;" d="M177.718,129.264
			c0-49.429-39.175-89.499-87.5-89.499c-48.324,0-87.499,40.07-87.499,89.499c0,49.43,39.175,89.501,87.499,89.501
			C138.543,218.765,177.718,178.694,177.718,129.264"/>
		<path id="path24" inkscape:connector-curvature="0" style="fill:#EF3D3A;" d="M6.285,107.098c0,0-6.334,93.334,79.666,96
			l-5.999,10l-46.666-15.666l-13.334-15.334L8.285,159.764l-6.667-26l2-17.333"/>
		<path id="path26" inkscape:connector-curvature="0" style="fill:#231F20;" d="M30.288,190.319
			C14.936,174.611,5.436,152.923,5.436,128.93l0,0c0-23.987,9.5-45.678,24.852-61.384l0,0C45.648,51.841,66.815,42.15,90.217,42.15
			l0,0c23.402,0,44.571,9.691,59.93,25.396l0,0c15.351,15.705,24.852,37.396,24.852,61.384l0,0c0,23.993-9.502,45.681-24.852,61.389
			l0,0c-15.359,15.702-36.527,25.393-59.93,25.395l0,0C66.815,215.712,45.648,206.021,30.288,190.319L30.288,190.319z
			 M26.403,63.747C10.087,80.433,0,103.493,0,128.93l0,0c0,25.441,10.087,48.499,26.402,65.186l0,0
			c16.312,16.691,38.891,27.035,63.814,27.032l0,0c24.923,0.003,47.505-10.341,63.814-27.032l0,0
			c16.317-16.687,26.406-39.747,26.403-65.186l0,0c0.002-25.437-10.086-48.497-26.403-65.183l0,0
			c-16.309-16.689-38.891-27.033-63.814-27.033l0,0C65.294,36.714,42.714,47.058,26.403,63.747L26.403,63.747"/>
		<path id="path28" inkscape:connector-curvature="0" style="fill:#F0D6B7;" d="M127.051,128.768l-13.334-2l-18-2l-11.667-0.333
			l-11.333,0.333l-8.667,2.667l-7.666,8.333l-6,17l-1.334,3.667l-8,2.666l-4.666,7.667l-3.334,11l3.667,9.667l8.667,3l7-3.334
			l3.333-7.333l4,0.667l1.333,1.666l-1.333,7.667l-0.333,9.667l2,13.333l-0.078,7.616l6.078,9.716l10.666,7.667l18.667,8l20.667-3
			l18-13l8.333-13.333l5.334-9.667l1.333-24l-4-20.667l-7.333-18.333l-7-9.667"/>
		<path id="path30" inkscape:connector-curvature="0" style="fill:#335061;" d="M115.717,71.102l-47.667-2v-8l4-28l-2-2.334
			L36.717,42.102l-2.333,4l-3.334,37.666l-7.666,22.667l-1.667,5.333l26.667,18.333l8.333,3.334l7.333-9l6.334-5.667l7.333-2.333
			l3.333-1l4-17.333l3-3.667l7.667,2.667l-5.333-10.334l29-13.666L115.717,71.102"/>
		<path id="path32" inkscape:connector-curvature="0" style="fill:#6D6B6D;" d="M36.717,187.435l8.667,3l7-3.334l3.333-7.333
			l4,0.667l1,4l-2,7.666l2,18.334l-1.667,10l6,7l13,10.333l-3.666,5l-18.334-9l-7.666-6l-4.334-9.333l-6.666-9l-2-10.667
			L36.717,187.435"/>
		<path id="path34" inkscape:connector-curvature="0" style="fill:#DCD9D8;" d="M50.383,218.768c0,0,5,12.333,25,18.333
			s1,4.334,1,4.334l-21.667-8.334l-8.333-8.333l-3.667-6.667L50.383,218.768"/>
		<path id="path36" inkscape:connector-curvature="0" style="fill:#DCD9D8;" d="M40.383,189.768c0,0-7,23.334,19.666,26.667l-1,4
			l-18.333-4.334l-5.333-17.333l1.333-11.333L40.383,189.768"/>
		<path id="path38" inkscape:connector-curvature="0" style="fill:#F7E4CD;" d="M51.049,158.768l4.365,4.229
			c0,0,1.969-0.229,2.302-2.562c0.333-2.334,1.333-23.334,15.667-34.668c1.307-1.034-10.667,1.668-10.667,1.668l-10.667,16.666"/>
		<path id="path40" inkscape:connector-curvature="0" style="fill:#F7E4CD;" d="M112.385,165.101c0,0,0.777,10.104,3.499,9.327
			c2.721-0.777,2.721-3.498,2.721-3.498S111.996,166.655,112.385,165.101"/>
		<path id="path42" inkscape:connector-curvature="0" style="fill:#F7E4CD;" d="M140.05,202.101c0,0-5.495-1.16-6-6
			c-0.506-4.841,6-1,7-0.666"/>
		<path id="path44" inkscape:connector-curvature="0" style="fill:#F7E4CD;" d="M99.717,201.767c0,0-7.333-1-7.333-5.666
			c0-4.666,8.333-4.334,10.667-2.334"/>
		<path id="path46" inkscape:connector-curvature="0" style="fill:#F7E4CD;" d="M54.383,180.101c0,0-12.667,7.667-14,0.334
			c-1.334-7.334-4.334-12.667,2-20.334l-4.334,1.334l-4,10.333l-1.333,10l7.667,8.001l8.666-0.667l5-4L54.383,180.101"/>
		<path id="path48" inkscape:connector-curvature="0" style="fill:#F7E4CD;" d="M60.383,201.101c0,0,5.666,29.334,34.333,35
			c23.602,4.665,35.999-1,40.667-6.333c0,0-21,24.999-41,17.333c-20-7.666-34.667-21.666-34.334-30.666
			C60.617,201.107,60.383,201.101,60.383,201.101"/>
		<path id="path50" inkscape:connector-curvature="0" style="fill:#F7E4CD;" d="M137.717,226.435c0,0-9.666,0.333-10-8.334
			c0,0-0.001-1.333,0.667-2.666c0,0,7.668,8.667,12.333,4"/>
		<path id="path52" inkscape:connector-curvature="0" style="fill:#F7E4CD;" d="M95.388,214.532c0,0-1.664,13.303-13.005,5.569
			c-7.334-5-6.667-12-5.334-13.333c1.334-1.334,0.971-4.019,1.986-2.176c1.014,1.843,0.68,7.843,4.348,9.509
			C87.049,215.768,93.06,217.63,95.388,214.532"/>
		<path id="path54" inkscape:connector-curvature="0" style="fill:#49728B;" d="M64.049,124.435l-31.333-14
			c0,0,13-51.667,6.333-67.667l-4.666,1.666l-0.334,19.667l-8.666,37.333l-3.667,10.334l32.667,21.999L64.049,124.435"/>
		<path id="path56" inkscape:connector-curvature="0" style="fill:#49728B;" d="M67.271,95.858l4.445-5.423v-20h-5.333
			c0,0-0.667,14-0.667,15.667c0,1.666,0.667,7.666,0.667,7.666"/>
		<path id="path58" inkscape:connector-curvature="0" style="fill:#49728B;" d="M67.383,67.434l-15-0.666l4.333-3l10.667-1.666"/>
		<path id="path60" inkscape:connector-curvature="0" style="fill:#335061;" d="M118.717,70.768l12.334,0.334l3-30.667
			l-12.667-1.666L118.717,70.768"/>
		<path id="path62" inkscape:connector-curvature="0" style="fill:#335061;" d="M122.05,70.768l18.666,1
			c0,0,7.667,19.334,7.667,20.334s6.667,27.999,6.667,27.999l-15,15.666l-3,2.667l-8-8v-31L122.05,70.768"/>
		<path id="path64" inkscape:connector-curvature="0" style="fill:#49728B;" d="M130.383,73.102l-11.667-2.334l1.667-9.334
			c4.333-2,11.667,3.334,11.667,3.334"/>
		<path id="path66" inkscape:connector-curvature="0" style="fill:#49728B;" d="M130.717,131.434l23.334-17.334l0.666,8
			l-17.666,16.334L130.717,131.434"/>
		<path id="path68" inkscape:connector-curvature="0" style="fill:#FFFFFF;" d="M78.951,5.098l-6.901,28.005l-3.432,20.663
			l-0.568,15.337l31.235,1.663l19.432,0.003l-1.766-35.003l3-27l-0.334-5l-25.332-2L78.951,5.098"/>
		<path id="path70" inkscape:connector-curvature="0" style="fill:#DCD9D8;" d="M114.383,71.102c0,0-1.667-34.667,3.333-59.334
			c0,0-10-6.334-24.667-8l28.001,1l3.333,2l-4,54.666l-1,11.668"/>
		<path id="path72" inkscape:connector-curvature="0" style="fill:#FFFFFF;" d="M134.618,43.098l13,3.667l24.666,1.333l3.667,11.334
			l-6.667,19.666l-7.666,1l-10.667-3.333l-10.234-4.997l-5.433,0.997l-4.234-1.663"/>
		<path id="path74" inkscape:connector-curvature="0" style="fill:#DCD9D8;" d="M134.383,49.768c0,0,8.666,3.999,10,3.666
			l-3.667,18.334l4.334,1.666c0,0,3-17.333,3-19.333c0,0,18.666-1,20.333-1c0,0,4,7.666,3,15.666l3.667-10.666l0.333-6l-5.333-8
			l-6-1.334l-10,0.334l-3.334,4.333l-11.666-1.666l-3.667-1.334"/>
		<path id="path76" inkscape:connector-curvature="0" style="fill:#FFFFFF;" d="M121.284,73.431l-7.333,18.666l-7.667,11
			c0,0,1.666,4.667,4,4.667c2.334,0,7.667,0,7.667,0l7.333-2.667l-0.666-12.333L121.284,73.431"/>
		<path id="path78" inkscape:connector-curvature="0" style="fill:#DCD9D8;" d="M122.717,79.768c0,0-9.333,17.999-9.333,20.666
			c0,0,1.666,4,4,3c2.333-1,7.333-3.666,7.333-3.666v6.333l-11.333,2.334l-7.667-1l13-30.667l2.667-0.334"/>
		<path id="path80" inkscape:connector-curvature="0" style="fill:#FFFFFF;" d="M81.951,123.764l-9.234,1.004l-8.667,2.667v-3
			l4.235-4.67l13.333-6"/>
		<path id="path82" inkscape:connector-curvature="0" style="fill:#DCD9D8;" d="M67.051,122.765c0,0,10.333-4.334,13.667-3.334
			l0.331-3.996l-9.331,1.996l-5.667,4L67.051,122.765"/>
		<path id="path84" inkscape:connector-curvature="0" style="fill:#D33833;" d="M134.582,106.63
			c-5.656,0.166-10.766,0.838-15.241,2.1c0.305,1.834-0.265,3.634,0.192,4.956c1.247,0.898,3.338,0.884,5.222,1.094
			c-1.63,0.802-3.919,1.118-5.801,0.656c-0.044,1.273-0.615,2.062-0.961,3.058c3.18,1.135,10.687,8.576,14.91,6.112
			c2.012-1.172,2.867-7.866,3.023-11.12C136.057,110.784,135.682,108.06,134.582,106.63"/>
		<path id="path86" inkscape:connector-curvature="0" style="fill:none;stroke:#D33833;stroke-width:2;" d="M134.582,106.63
			c-5.656,0.166-10.766,0.838-15.241,2.1c0.305,1.834-0.265,3.634,0.192,4.956c1.247,0.898,3.338,0.884,5.222,1.094
			c-1.63,0.802-3.919,1.118-5.801,0.656c-0.044,1.273-0.615,2.062-0.961,3.058c3.18,1.135,10.687,8.576,14.91,6.112
			c2.012-1.172,2.867-7.866,3.023-11.12C136.057,110.784,135.682,108.06,134.582,106.63z"/>
		<path id="path88" inkscape:connector-curvature="0" style="fill:#D33833;" d="M107.535,115.876
			c-0.015-0.428-0.033-0.859-0.05-1.291c-1.766-1.16-4.616-1.146-6.555-2.121c2.857-0.125,5.106-0.813,7.052-1.783
			c-0.043-1.078-0.084-2.156-0.126-3.234c-3.237-2.216-6.194-5.516-10.005-7.594c-1.802-0.983-8.127-3.512-10.044-3.065
			c-1.084,0.252-1.182,1.598-1.616,2.867c-0.924,2.716-3.051,7.041-3.237,11.132c-0.236,5.166-0.758,13.823,4.809,12.759
			c4.491-0.856,9.716-2.926,13.193-4.826C103.082,117.56,104.311,116.124,107.535,115.876"/>
		<path id="path90" inkscape:connector-curvature="0" style="fill:none;stroke:#D33833;stroke-width:2;" d="M107.535,115.876
			c-0.015-0.428-0.033-0.859-0.05-1.291c-1.766-1.16-4.616-1.146-6.555-2.121c2.857-0.125,5.106-0.813,7.052-1.783
			c-0.043-1.078-0.084-2.156-0.126-3.234c-3.237-2.216-6.194-5.516-10.005-7.594c-1.802-0.983-8.127-3.512-10.044-3.065
			c-1.084,0.252-1.182,1.598-1.616,2.867c-0.924,2.716-3.051,7.041-3.237,11.132c-0.236,5.166-0.758,13.823,4.809,12.759
			c4.491-0.856,9.716-2.926,13.193-4.826C103.082,117.56,104.311,116.124,107.535,115.876z"/>
		<path id="path92" inkscape:connector-curvature="0" style="fill:#D33833;" d="M110.75,109.712
			c-0.495,2.814-1.066,3.617-0.845,6.073C117.411,120.788,118.82,107.189,110.75,109.712"/>
		<path id="path94" inkscape:connector-curvature="0" style="fill:none;stroke:#D33833;stroke-width:2;" d="M110.75,109.712
			c-0.495,2.814-1.066,3.617-0.845,6.073C117.411,120.788,118.82,107.189,110.75,109.712z"/>
		<path id="path96" inkscape:connector-curvature="0" style="fill:#EF3D3A;" d="M121.617,107.431c0,0-2.334,3.334-0.666,4.334
			c1.666,1,3.334-0.001,4.334,1.666c1,1.666,0,2.666,0.333,4.666c0.334,2,2.002,2.334,3.667,2.667c1.666,0.333,6.334,1,7-0.667l-2,6
			l-4,1.334l-12.667-7.334l-0.666-3.666v-7.334"/>
		<path id="path98" inkscape:connector-curvature="0" style="fill:#EF3D3A;" d="M86.617,96.431
			c-0.401,5.202-0.824,10.397-1.296,15.594c-0.705,7.76,1.864,6.406,8.591,6.406c1.027,0,6.326-1.225,6.705-2
			c1.818-3.713-3.04-2.888,2.095-5.688c4.333-2.363,11.99,1.435,10.239,6.688c-0.98,1.168-5.106,0.364-6.585,1.13
			c-2.604,1.35-5.208,2.7-7.812,4.05c-3.313,1.72-10.97,4.225-14.503,1.823c-8.95-6.088,0.565-21.296,3.758-27.646"/>
		<path id="path100" inkscape:connector-curvature="0" style="fill:#231F20;" d="M95.388,214.532
			c-9.085,2.116-13.599-3.802-16.353-9.94c-2.459,0.596-1.48,3.94-0.859,5.644c1.626,4.472,8.18,10.425,13.534,9.618
			C94.014,219.507,97.133,217.4,95.388,214.532"/>
		<path id="path102" inkscape:connector-curvature="0" style="fill:#231F20;" d="M139.655,204.186
			c0.143-0.006,0.288-0.011,0.431-0.017c2.053-4.265,3.83-8.783,6.419-12.548c-1.734-4.041-13.137-7.617-12.962-0.361
			c2.466,1.078,6.723,0.22,8.909,1.597C141.189,196.326,139.365,199.279,139.655,204.186"/>
		<path id="path104" inkscape:connector-curvature="0" style="fill:#231F20;" d="M100.04,204.075
			c1.948-3.571,2.582-7.323,5.351-10.022c1.247-1.215,3.672-2.696,2.47-6.075c-0.281-0.797-2.334-2.574-3.52-2.923
			c-4.329-1.277-14.416-0.264-11,5.134c3.581-0.167,8.392-2.325,11.068,0.273C102.355,193.747,98.692,200.246,100.04,204.075"/>
		<path id="path106" inkscape:connector-curvature="0" style="fill:#231F20;" d="M138.03,167.781
			c-6.518-4.188-13.786-8.74-24.466-7.684c-2.282,1.984-3.152,6.399-0.935,9.315c1.154-1.984,0.429-5.633,3.645-6.182
			c6.06-1.037,13.113,3.707,17.473,5.366c2.702,4.557-0.234,6.233-2.669,9.166c-4.984,6.009-11.672,13.457-11.429,22.453
			c2.016,1.461,2.189-2.23,2.478-2.902c2.603-6.091,9.154-13.883,13.935-19.097c1.174-1.284,3.107-2.516,3.322-3.365
			C140.004,172.381,137.771,169.423,138.03,167.781"/>
		<path id="path108" inkscape:connector-curvature="0" style="fill:#231F20;" d="M52.102,172.189
			c-2.043,1.166-2.53,6.302-4.928,6.448c-3.427,0.209-2.802-6.662-2.789-10.68c-2.359,2.141-2.774,8.737-1.041,12.123
			c-1.976,0.97-2.858-1.07-3.953-1.789C40.799,188.521,54.356,183.036,52.102,172.189"/>
		<path id="path110" inkscape:connector-curvature="0" style="fill:#231F20;" d="M142.18,163.521
			c-3.034-5.775-7.326-12.135-16.229-12.32c-0.181,1.865-0.32,4.703,0.01,5.827C132.767,157.681,136.969,161.145,142.18,163.521"/>
		<path id="path112" inkscape:connector-curvature="0" style="fill:#231F20;" d="M99.527,159.777
			c5.678-2.987,16.114-3.307,23.832-3.081c0.414-1.691,0.404-3.78,0.42-5.842C113.858,150.359,102.128,152.814,99.527,159.777"/>
		<path id="path114" inkscape:connector-curvature="0" style="fill:#231F20;" d="M98.447,154.209
			c3.927-9.859,17.423-8.724,28.804-8.452c-0.501-1.28-1.587-2.792-2.937-3.339c-3.648-1.484-13.706-2.61-18.77,0.079
			c-3.211,1.707-5.273,5.564-7.033,7.825C97.662,151.414,93.431,154.203,98.447,154.209"/>
		<path id="path116" inkscape:connector-curvature="0" style="fill:#81B0C4;" d="M137.556,99.827
			c-4.608-7.892-9.016-15.998-14.484-22.959c2.292,6.739,3.273,18.018,3.619,26.617C131.486,105.728,135.592,102.979,137.556,99.827
			"/>
		<path id="path118" inkscape:connector-curvature="0" style="fill:#231F20;" d="M162.352,71.461
			c-5.159-1.033-8.784-6.047-13.817-5.725C151.301,69.635,156.148,71.279,162.352,71.461"/>
		<path id="path120" inkscape:connector-curvature="0" style="fill:#231F20;" d="M164.628,63.387
			c-4.205-0.445-9.144-1.125-13.409-0.774C153.238,65.697,161.017,64.633,164.628,63.387"/>
		<path id="path122" inkscape:connector-curvature="0" style="fill:#231F20;" d="M166.085,56.426
			c-4.726-0.103-10.6-0.009-15.091,0.368C153.65,59.648,163.02,57.854,166.085,56.426"/>
		<path id="path124" inkscape:connector-curvature="0" style="fill:#DCD9D8;" d="M128.664,37.377
			c0.677-5.935,3.03-11.949,2.736-18.449c-2.613-0.881-4.114-1.652-7.616-1.648c-0.247,5.525-0.986,13.97-0.765,19.236
			C124.742,36.402,127.281,37.746,128.664,37.377"/>
		<path id="path126" inkscape:connector-curvature="0" style="fill:#F0D6B7;" d="M121.045,124.849
			c-2.373-1.549-4.394-3.484-6.673-5.138c-5.054-0.25-7.812,0.35-11.525,3.252c0.061,0.233,0.434,0.129,0.448,0.415
			C108.705,120.968,115.582,124.361,121.045,124.849"/>
		<path id="path128" inkscape:connector-curvature="0" style="fill:#81B0C4;" d="M92.645,87.971
			c1.486,6.441,7.31,9.777,12.599,13.324c5.459-6.928,8.779-15.838,12.435-24.436C109.041,79.463,100.215,83.688,92.645,87.971"/>
		<path id="path130" inkscape:connector-curvature="0" style="fill:#231F20;" d="M123.02,36.516
			c-0.221-5.266,0.518-13.711,0.765-19.236c3.502-0.005,5.002,0.766,7.616,1.648c0.295,6.5-2.059,12.514-2.736,18.449
			C127.281,37.746,124.742,36.402,123.02,36.516z M68.506,66.465c2.309-21.223,5.652-39.063,11.785-57.857
			c13.612-4.133,30.02-4.493,42.051-0.764c-2.208,10.607-1.244,23.521-2.534,34.841c-0.974,8.508-0.477,17.068-1.811,25.748
			C103.418,71.465,82.813,69.141,68.506,66.465z M121.443,68.298c-0.123-9.114,0.408-18.105,1.104-27.231
			c3.5,0.525,5.875,0.876,9.126,1.589c-1.055,8.786-0.926,18.672-3.077,26.444C126.111,69.077,123.922,69.129,121.443,68.298z
			 M139.198,69.768c-1.661,0.38-3.595,0.015-5.182-0.016c0.746-7.43,2.556-15.63,3.193-23.429c2.497-0.077,3.831,1.1,5.885,1.497
			C143.204,54.666,142.495,64.098,139.198,69.768z M166.082,45.205c5.205,1.263,8.477,7.638,7.022,14.186
			c-0.977,4.4-2.717,12.685-4.579,15.5c-1.376,2.081-5.107,4.807-8.086,2.9c-4.846-3.103-13.384-4.004-16.917-7.76
			c1.772-5.9,2.322-14.004,3.053-21.48c6.054-0.378,13.502,1.666,18.537-0.503c-3.515-1.138-8.076-1.147-11.112-2.806
			C156.482,44.043,162.293,44.285,166.082,45.205L166.082,45.205z M117.679,76.859c-3.656,8.598-6.977,17.508-12.435,24.436
			c-5.289-3.548-11.113-6.883-12.599-13.324C100.215,83.688,109.041,79.463,117.679,76.859z M126.691,103.484
			c-0.346-8.599-1.327-19.878-3.619-26.617c5.467,6.961,9.876,15.067,14.484,22.959
			C135.592,102.979,131.486,105.728,126.691,103.484z M116.475,107.114c-2.071,0.223-3.829-2.381-6.523-1.255
			c-0.616-0.682-1.177-1.421-1.806-2.088c5.948-7.168,8.651-17.337,13.245-25.762c2.465,8.092,2.181,16.957,2.724,25.789
			C120.728,103.584,118.849,106.862,116.475,107.114z M109.906,115.784c-0.221-2.455,0.35-3.259,0.845-6.073
			C118.82,107.189,117.411,120.788,109.906,115.784z M100.957,118.722c-3.477,1.9-8.702,3.97-13.193,4.826
			c-5.567,1.066-5.045-7.594-4.809-12.759c0.186-4.091,2.312-8.416,3.237-11.132c0.434-1.269,0.531-2.615,1.616-2.867
			c1.917-0.447,8.241,2.082,10.044,3.065c3.811,2.078,6.768,5.378,10.005,7.594c0.042,1.078,0.083,2.156,0.126,3.234
			c-1.946,0.969-4.195,1.658-7.052,1.783c1.938,0.975,4.789,0.961,6.555,2.121c0.017,0.432,0.035,0.862,0.05,1.291
			C104.311,116.124,103.082,117.56,100.957,118.722z M67.743,124.755c-2.886-2.93,8.094-6.923,11.591-7.139
			c-0.02,1.855,1.057,3.602,0.84,4.932C76.021,123.277,70.564,122.796,67.743,124.755z M103.295,123.379
			c-0.014-0.286-0.387-0.182-0.448-0.415c3.713-2.902,6.471-3.502,11.525-3.252c2.279,1.654,4.3,3.588,6.673,5.138
			C115.582,124.361,108.705,120.968,103.295,123.379z M135.927,113.484c-0.156,3.255-1.011,9.948-3.023,11.12
			c-4.223,2.466-11.73-4.977-14.91-6.112c0.346-0.996,0.917-1.785,0.961-3.058c1.881,0.462,4.171,0.146,5.801-0.656
			c-1.884-0.211-3.975-0.197-5.222-1.094c-0.457-1.321,0.112-3.121-0.192-4.956c4.474-1.262,9.584-1.934,15.241-2.1
			C135.682,108.06,136.057,110.784,135.927,113.484z M62.885,121.921c-0.906,0.646-7.037,8.623-7.876,8.292
			c-11.094-4.375-21.467-11.941-30.737-19.095c8.838-18.964,12.406-42.198,13.036-64.591c10.124-4.735,19.017-11.562,32.755-12.274
			c-1.59,11.248-3.042,21.283-3.944,31.873c-3.452,1.455-8.404-0.066-11.634,0.452c-0.027,3.892,4.934,1.705,5.347,4.322
			c0.311,1.98-2.73,2.13-1.74,5.248c2.526-0.918,3.852-2.945,6.545-3.707c2.461,5.384-0.034,14.91,0.32,19.41
			c0.067,0.845,0.422,4.681,2.314,4.008c1.675-0.595-0.095-10.202,0.088-14.461c0.167-3.924-0.474-7.72,1.115-10.184
			c13.276,1.807,26.766,2.975,41.13,3.369c-3.16,1.356-6.914,2.639-11.03,4.959c-2.231,1.257-9.265,3.875-9.909,5.994
			c-1.027,3.377,2.695,5.176,3.332,8.071c-6.701-3.655-8.009,3.503-9.594,8.573c-1.436,4.593-2.254,8.024-2.606,10.673
			C74.025,115.605,67.853,118.392,62.885,121.921z M130.064,129.248c9.243,4.482,10.909-16.751,7.286-23.591
			c0.559-2.04,2.486-2.821,3.272-4.655c-5.158-9.241-10.887-17.866-16.15-26.996c3.915,2.437,9.507,0.436,14.114,2.259
			c1.684,0.666,2.903,4.521,4.178,7.605c3.507,8.485,7.188,19.182,8.827,27.279c0.37,1.845,1.378,5.865,1.152,7.507
			c-0.403,2.94-4.392,5.12-6.421,6.938c-3.738,3.358-6.092,6.312-9.991,9.452C134.75,132.714,131.357,131.146,130.064,129.248z
			 M41.746,211.216c-4.405-4.845-3.483-13.926-2.949-20.386c7.961,5.009,18.527-0.395,18.427-8.914
			c3.801,0.102,1.42,4.748,0.733,7.741c-2.247,9.776,3.785,20.397,0.273,29.337C51.412,218.476,45.81,215.691,41.746,211.216
			L41.746,211.216z M73.26,239.342c-9.97-2.827-22.749-10.071-26.846-19.028c3.173,0.461,5.375,2.061,8.505,2.259
			c1.183,0.077,2.732-0.495,4.091-0.158c2.709,0.672,4.995,6.746,7.039,9.006c1.992,2.207,4.387,3.15,6.026,5.162
			c1.052,0.508,2.609,0.473,2.669,2.054C74.287,239.125,73.806,239.497,73.26,239.342z M125.163,236.684
			c-10.349,5.838-27.866,10.23-38.874,4.743c-8.883-4.43-20.89-11.757-24.984-21.043c3.824-8.962-1.133-17.173-1.449-26.27
			c-0.168-4.841,2.279-9.067,2.466-14.337c-1.309-2.159-5.306-2.425-8.074-2.277c-0.931,4.662-2.562,9.902-7.363,10.428
			c-6.793,0.743-11.759-4.879-12.068-10.754c-0.366-6.909,5.306-18.36,13.345-17.566c3.105,0.307,3.869,3.42,7.252,3.388
			c1.833-3.659-2.829-4.808-3.309-7.425c-0.125-0.676,0.387-3.318,0.684-4.557c1.46-6.033,4.715-13.841,7.919-18.434
			c4.066-5.827,12.056-6.704,20.651-7.275c1.535,3.307,7.19,3.034,10.875,2.169c-4.417,1.749-8.522,5.989-11.924,9.742
			c-3.908,4.306-7.867,8.925-8.067,14.553c7.386-10.246,13.488-19.195,26.917-23.701c10.162-3.409,22.03,1.562,29.837,7.045
			c3.24,2.279,5.174,5.895,7.477,9.205c8.616,12.395,12.637,30.087,11.754,47.234c-0.364,7.073-0.349,14.12-2.721,18.878
			c-2.48,4.975-10.868,9.426-15.778,4.926c-0.91,4.838,4.083,7.831,9.948,6.089C135.496,226.845,131.107,233.33,125.163,236.684
			L125.163,236.684z M144.444,77.117c8.087,4.02,23.197,10.821,28.267-0.015c1.871-3.995,4.066-10.746,5.035-14.87
			c1.369-5.816-1.484-18.043-7.463-19.995c-5.281-1.724-11.443-1.62-17.804-0.341c-0.749,0.623-1.583,1.709-2.166,2.841
			c-4.542,0.176-8.795-0.245-12.383-2.111c0.34-3.359-1.932-3.898-4.062-4.59c-1.579-6.261,3.159-14.438,2.025-20.147
			c-0.809-4.067-5.813-4.696-9.491-5.457c-0.12-2.26,0.161-4.147,0.412-6.059c-0.841-3.099-4.613-4.863-8.188-5.295
			C106.868-0.334,89.013-0.97,77.703,3.098c-3.156,7.742-5.643,17.159-8.272,25.998c-11.031-1.178-19.953,4.76-28.364,8.65
			c-2.912,1.35-6.941,2.094-8.028,4.412c-1.055,2.245-0.624,6.545-0.885,10.609c-0.666,10.377-1.236,20.386-3.977,31.011
			c-1.23,4.767-3.375,8.975-4.871,13.569c-1.383,4.258-3.798,9.52-4.429,13.766c-0.934,6.293,4.991,6.643,8.78,9.37
			c5.858,4.217,10.456,6.549,16.799,10.355c1.879,1.127,7.544,3.98,8.189,5.294c1.281,2.605-2.199,6.278-3.13,8.32
			c-1.472,3.229-2.239,5.972-2.45,9.159c-5.322,0.841-9.355,4.008-11.792,7.579c-4.031,5.909-6.827,16.844-3.339,25.161
			c0.273,0.655,1.638,1.943,1.839,2.948c0.397,1.981-0.747,4.616-0.818,6.723c-0.366,10.809,1.829,20.123,9.106,23.384
			c2.954,11.769,13.528,15.682,23.49,21.531c3.724,2.186,7.829,3.583,12.069,5.143c15.208,5.597,38.541,4.543,51.163-5.003
			c5.352-4.048,13.907-12.595,16.967-18.783c8.082-16.337,7.508-43.64,1.855-63.513c-0.76-2.668-1.862-6.59-3.401-9.795
			c-1.073-2.238-4.408-6.716-4.003-8.692c0.417-2.043,7.605-7.5,9.145-8.986c2.775-2.677,8.047-6.23,8.474-9.609
			c0.459-3.594-1.584-8.512-2.62-11.982C151.743,98.139,148.367,87.438,144.444,77.117"/>
		<path id="path132" inkscape:connector-curvature="0" style="fill:#F7E4CD;" d="M90.491,157.255
			c0.439,0.584,2.851,1.471,6.226-0.154c0,0-4-0.666-3.667-7.336l-1.666,0.334C91.383,150.099,89.66,156.146,90.491,157.255"/>
		<path id="path134" inkscape:connector-curvature="0" style="fill:#1D1919;" d="M119.717,99.934c0-1.012-0.82-1.833-1.833-1.833
			c-1.012,0-1.833,0.82-1.833,1.833c0,1.012,0.821,1.834,1.833,1.834C118.896,101.768,119.717,100.946,119.717,99.934"/>
		<path id="path136" inkscape:connector-curvature="0" style="fill:#1D1919;" d="M121.55,91.434c0-1.012-0.821-1.833-1.834-1.833
			c-1.012,0-1.833,0.82-1.833,1.833c0,1.012,0.821,1.834,1.833,1.834C120.729,93.268,121.55,92.446,121.55,91.434"/>
	</g>
	<g style="enable-background:new    ;">
		<path d="M313.689,166.004c-1.875-0.235-3.469-0.469-4.781-0.704c-1.313-0.235-2.789-0.562-4.43-0.984
			c-1.923-0.516-3.153-1.432-3.691-2.744c-0.539-1.314-0.809-2.815-0.809-4.504v-55.024c0-5.067-1.02-9.711-3.059-13.933
			s-4.841-7.763-8.402-10.623c-3.61-2.816-7.641-4.939-12.094-6.369c-4.454-1.43-9.211-2.146-14.273-2.146
			c-8.766,0-15.832,2.109-21.199,6.328c-5.368,4.219-8.051,10.007-8.051,17.367c0,4.359,1.23,7.968,3.691,10.828
			c2.461,2.859,5.847,4.289,10.16,4.289c4.078,0,7.323-1.195,9.738-3.586c2.414-2.391,3.621-5.344,3.621-8.859
			c0-3.001-1.044-5.777-3.129-8.332c-2.086-2.555-4.465-4.911-7.137-7.066v-0.914c0.423-0.938,1.339-1.735,2.75-2.391
			c1.409-0.657,2.843-0.984,4.301-0.984c5.64,0,10.07,2.017,13.29,6.051c3.22,4.034,4.831,10.133,4.831,18.296v56.364
			c0,1.689-0.259,3.096-0.778,4.222c-0.519,1.125-1.767,2.111-3.744,2.955c-1.413,0.61-3.12,1.126-5.122,1.548
			c-2.002,0.422-3.663,0.727-4.981,0.915v5.484h53.297V166.004z"/>
		<path d="M397.079,88.519c-1.641-2.672-3.62-5.192-5.941-7.559c-2.32-2.367-4.958-4.395-7.911-6.082
			c-3.141-1.782-6.317-3.129-9.527-4.043c-3.211-0.914-6.903-1.371-11.075-1.371c-6.938,0-12.927,0.984-17.964,2.953
			c-5.039,1.969-9.2,4.616-12.481,7.945c-3.281,3.327-5.73,7.253-7.347,11.777c-1.617,4.523-2.426,9.433-2.426,14.73
			c0,4.781,0.879,9.362,2.637,13.746c1.758,4.382,4.254,8.285,7.488,11.707c3.188,3.328,7.208,6.023,12.059,8.086
			c4.852,2.062,10.277,3.094,16.277,3.094c6.562,0,11.953-0.798,16.172-2.391c4.219-1.594,7.711-3.797,10.477-6.609
			c2.672-2.672,4.617-5.825,5.836-9.457c1.219-3.633,1.828-7.442,1.828-11.426v-4.57H347.65c0-9.61,1.852-16.923,5.555-21.938
			c3.703-5.016,9.586-7.523,17.648-7.523c4.406,0,8.367,1.206,11.883,3.621c3.516,2.414,6.516,5.472,9,9.176L397.079,88.519z
			 M370.22,115.238c0,2.812-0.141,5.695-0.422,8.648s-0.773,5.367-1.477,7.242c-0.797,2.203-1.888,3.867-3.269,4.992
			c-1.383,1.125-3.13,1.688-5.239,1.688c-3.609,0-6.492-1.828-8.648-5.484s-3.328-9.446-3.516-17.367L370.22,115.238z"/>
		<path d="M496.642,71.715h-42.258v5.133c0.89,0.093,1.969,0.211,3.234,0.352s2.226,0.374,2.883,0.703
			c0.984,0.515,1.688,1.266,2.109,2.25s0.633,2.437,0.633,4.359v32.906c0,4.781-0.882,8.378-2.645,10.793
			c-1.762,2.414-4.359,3.621-7.791,3.621c-1.88,0-3.63-0.281-5.252-0.844c-1.621-0.562-3.208-1.383-4.76-2.461
			c-1.363-0.938-2.456-1.898-3.278-2.883c-0.823-0.984-1.516-1.852-2.08-2.602V85.285c0-1.641,0.234-3.013,0.703-4.113
			c0.468-1.102,1.241-1.934,2.32-2.496c0.749-0.422,1.688-0.798,2.812-1.125c1.125-0.329,2.226-0.562,3.305-0.703v-5.133h-42.75
			v5.133c1.171,0.093,2.355,0.222,3.551,0.387c1.195,0.164,2.215,0.387,3.059,0.668c1.5,0.515,2.531,1.312,3.094,2.391
			c0.562,1.077,0.844,2.484,0.844,4.219v40.922c0,1.452-0.376,2.883-1.125,4.289c-0.75,1.406-1.734,2.554-2.953,3.445
			c-0.844,0.562-1.91,1.03-3.199,1.406c-1.29,0.375-2.707,0.633-4.254,0.773v5.133l33.539,1.828l1.055-1.055v-10.195h0.281
			c1.312,1.171,2.906,2.577,4.781,4.219c1.874,1.64,3.609,2.976,5.203,4.008c1.733,1.125,4.008,2.085,6.82,2.883
			c2.812,0.797,5.812,1.195,9,1.195c7.64,0,13.37-2.169,17.191-6.504c3.82-4.336,5.73-10.09,5.73-17.262V85.144
			c0-1.735,0.257-3.118,0.773-4.148c0.516-1.032,1.477-1.852,2.883-2.461c0.749-0.329,1.676-0.657,2.777-0.984
			c1.101-0.329,2.355-0.562,3.762-0.703V71.715z"/>
		<path d="M593.392,71.715H560.25c-4.075,7.153-7.798,13.22-11.169,18.199c-3.373,4.978-6.558,9.596-9.555,13.852l-4.142-3.504
			V84.934c0-1.688,0.246-3.071,0.738-4.148c0.492-1.079,1.441-1.876,2.848-2.391c0.844-0.376,1.828-0.703,2.953-0.984
			s2.25-0.47,3.375-0.562v-5.133h-43.664v5.133c1.18,0.093,2.358,0.222,3.539,0.387c1.18,0.164,2.218,0.387,3.114,0.668
			c1.509,0.515,2.537,1.312,3.08,2.391c0.543,1.077,0.814,2.484,0.814,4.219v78.398c0,1.547-0.341,3.152-1.02,4.816
			c-0.68,1.663-1.677,2.918-2.988,3.762c-0.891,0.562-2.227,1.03-4.008,1.406c-1.782,0.375-3.399,0.609-4.852,0.703v5.133
			l35.013,1.828l1.057-1.125v-72.559c3.464,3.094,7.361,6.679,11.691,10.757c4.331,4.077,7.807,7.452,10.43,10.124
			c1.547,1.593,2.401,2.8,2.566,3.62c0.163,0.82,0.246,1.324,0.246,1.512c0,0.844-0.741,1.547-2.22,2.109
			c-1.481,0.562-3.708,1.055-6.682,1.477v4.992h35.719v-4.852c-4.681-1.313-8.25-2.543-10.706-3.691
			c-2.456-1.149-5.136-2.684-8.038-4.605c-1.919-1.266-3.778-2.593-5.578-3.979c-1.799-1.387-3.867-3.115-6.204-5.184
			c4.586-6.654,8.82-12.813,12.704-18.482s7.955-11.666,12.213-17.991c1.45-2.202,3.252-3.678,5.406-4.427
			c2.153-0.751,4.308-1.22,6.461-1.406V71.715z"/>
		<path d="M638.603,71.715h-44.438v5.133c1.219,0.093,2.414,0.211,3.586,0.352c1.171,0.141,2.18,0.374,3.023,0.703
			c1.5,0.562,2.555,1.371,3.164,2.426c0.608,1.055,0.914,2.448,0.914,4.184v40.922c0,1.64-0.376,3.082-1.125,4.324
			c-0.75,1.241-1.688,2.238-2.812,2.988c-0.844,0.562-2.121,1.101-3.832,1.617c-1.712,0.515-3.27,0.844-4.676,0.984v5.133
			l34.453,1.828l1.055-1.055V85.426c0-1.641,0.352-3.035,1.055-4.184c0.703-1.149,1.711-2.004,3.023-2.566
			c0.938-0.422,1.969-0.798,3.094-1.125c1.125-0.329,2.296-0.562,3.516-0.703V71.715z M628.337,167.621
			c0-3.563-1.371-6.598-4.113-9.105c-2.742-2.508-5.988-3.762-9.738-3.762c-3.797,0-7.066,1.254-9.809,3.762
			c-2.742,2.507-4.113,5.543-4.113,9.105c0,3.562,1.371,6.609,4.113,9.141s6.012,3.797,9.809,3.797s7.055-1.266,9.773-3.797
			C626.977,174.23,628.337,171.183,628.337,167.621z"/>
		<path d="M737.884,71.715h-42.258v5.133c0.89,0.093,1.969,0.211,3.234,0.352s2.226,0.374,2.883,0.703
			c0.984,0.515,1.688,1.266,2.109,2.25s0.633,2.437,0.633,4.359v32.906c0,4.781-0.882,8.378-2.645,10.793
			c-1.762,2.414-4.359,3.621-7.791,3.621c-1.88,0-3.63-0.281-5.252-0.844c-1.621-0.562-3.208-1.383-4.76-2.461
			c-1.363-0.938-2.456-1.898-3.278-2.883c-0.823-0.984-1.516-1.852-2.08-2.602V85.285c0-1.641,0.234-3.013,0.703-4.113
			c0.468-1.102,1.241-1.934,2.32-2.496c0.749-0.422,1.688-0.798,2.812-1.125c1.125-0.329,2.226-0.562,3.305-0.703v-5.133h-42.75
			v5.133c1.171,0.093,2.355,0.222,3.551,0.387c1.195,0.164,2.215,0.387,3.059,0.668c1.5,0.515,2.531,1.312,3.094,2.391
			c0.562,1.077,0.844,2.484,0.844,4.219v40.922c0,1.452-0.376,2.883-1.125,4.289c-0.75,1.406-1.734,2.554-2.953,3.445
			c-0.844,0.562-1.91,1.03-3.199,1.406c-1.29,0.375-2.707,0.633-4.254,0.773v5.133l33.539,1.828l1.055-1.055v-10.195h0.281
			c1.312,1.171,2.906,2.577,4.781,4.219c1.874,1.64,3.609,2.976,5.203,4.008c1.733,1.125,4.008,2.085,6.82,2.883
			c2.812,0.797,5.812,1.195,9,1.195c7.64,0,13.37-2.169,17.191-6.504c3.82-4.336,5.73-10.09,5.73-17.262V85.144
			c0-1.735,0.257-3.118,0.773-4.148c0.516-1.032,1.477-1.852,2.883-2.461c0.749-0.329,1.676-0.657,2.777-0.984
			c1.101-0.329,2.355-0.562,3.762-0.703V71.715z"/>
		<path d="M776.978,69.324c-4.547,0-8.989,0.668-13.324,2.004c-4.336,1.336-7.699,2.753-10.09,4.254l-2.109-4.781h-5.484
			l-0.914,26.227h5.133c0.703-2.109,1.874-4.489,3.516-7.137c1.641-2.648,3.516-5.027,5.625-7.137
			c2.203-2.109,4.722-3.891,7.559-5.344c2.836-1.454,5.871-2.18,9.105-2.18c4.265,0,7.441,0.832,9.527,2.496
			c2.085,1.663,3.129,4.23,3.129,7.699c0,1.874-0.469,3.421-1.406,4.641c-0.938,1.218-2.227,2.273-3.867,3.164
			c-1.828,0.937-3.832,1.734-6.012,2.391c-2.18,0.655-4.863,1.452-8.051,2.391c-3.188,0.937-5.918,1.887-8.191,2.848
			c-2.274,0.96-4.63,2.472-7.066,4.535c-2.109,1.828-3.797,4.03-5.062,6.609c-1.266,2.577-1.898,5.648-1.898,9.211
			c0,6.609,2.777,11.953,8.332,16.031s12.832,6.117,21.832,6.117c4.265,0,8.191-0.434,11.777-1.301
			c3.586-0.868,6.598-1.817,9.035-2.848l1.477,4.148h5.344l1.125-23.977h-4.922c-1.642,4.874-4.454,9.081-8.438,12.621
			c-3.984,3.539-8.273,5.309-12.867,5.309c-3.61,0-6.445-0.75-8.508-2.25c-2.063-1.501-3.094-3.586-3.094-6.258
			c0-3.563,1.509-6.141,4.527-7.734c3.018-1.595,7.241-3.094,12.669-4.5c8.376-2.157,14.506-5.098,18.391-8.824
			c3.884-3.727,5.826-8.473,5.826-14.238c0-7.688-3.013-13.641-9.035-17.859C794.544,71.434,786.681,69.324,776.978,69.324z"/>
	</g>
</g>
</svg>
