<?xml version="1.0" standalone="no"?>
<!DOCTYPE svg PUBLIC "-//W3C//DTD SVG 20010904//EN"
 "http://www.w3.org/TR/2001/REC-SVG-20010904/DTD/svg10.dtd">
<svg version="1.0" xmlns="http://www.w3.org/2000/svg"
 width="1020.000000pt" height="790.000000pt" viewBox="0 0 1020.000000 790.000000"
 preserveAspectRatio="xMidYMid meet">
<metadata>
Created by potrace 1.14, written by Peter Selinger 2001-2017
</metadata>
<g transform="translate(0.000000,790.000000) scale(0.100000,-0.100000)"
fill="#000000" stroke="none">
<path d="M2920 4305 l0 -1125 105 0 105 0 0 361 0 361 36 44 c20 24 40 44 43
44 4 0 131 -182 282 -405 l274 -404 104 -1 103 0 -17 28 c-15 22 -203 299
-596 878 l-29 42 245 276 c135 152 239 276 230 276 -8 0 -162 -166 -342 -369
l-328 -369 -3 744 -2 744 -105 0 -105 0 0 -1125z"/>
<path d="M4820 4683 c-293 -45 -504 -237 -581 -528 -30 -111 -32 -363 -6 -480
65 -281 257 -452 558 -496 253 -37 479 32 645 196 92 91 148 191 185 330 30
110 32 362 6 480 -62 272 -243 439 -527 491 -70 12 -222 16 -280 7z m222 -24
c195 -41 329 -194 380 -434 29 -139 30 -389 1 -525 -64 -298 -237 -485 -469
-507 -181 -17 -362 82 -447 245 -93 177 -121 471 -68 729 72 350 319 552 603
492z"/>
<path d="M6315 4675 c-95 -15 -300 -77 -331 -100 -35 -25 -7 -25 47 -1 30 14
107 39 171 55 276 71 460 43 540 -83 l33 -50 3 -297 3 -296 -213 -6 c-221 -6
-346 -22 -463 -58 -84 -26 -131 -55 -178 -110 -42 -48 -53 -97 -44 -198 20
-245 189 -374 466 -358 183 11 312 82 405 222 l26 40 0 -42 c0 -30 9 -54 33
-89 57 -85 163 -124 335 -124 90 0 95 15 6 23 -74 6 -107 24 -139 78 -19 33
-20 57 -25 609 -5 540 -6 577 -24 610 -75 138 -165 178 -416 185 -98 3 -174 0
-235 -10z m465 -992 c0 -235 -5 -250 -103 -348 -76 -75 -160 -120 -257 -136
-206 -34 -329 100 -330 357 0 238 135 321 533 323 l157 1 0 -197z"/>
</g>
</svg>
