<?xml version="1.0" standalone="no"?>
<!DOCTYPE svg PUBLIC "-//W3C//DTD SVG 20010904//EN"
 "http://www.w3.org/TR/2001/REC-SVG-20010904/DTD/svg10.dtd">
<svg version="1.0" xmlns="http://www.w3.org/2000/svg"
 width="400.000000pt" height="400.000000pt" viewBox="0 0 400.000000 400.000000"
 preserveAspectRatio="xMidYMid meet">
<metadata>
Created by potrace 1.14, written by Peter Selinger 2001-2017
</metadata>
<g transform="translate(0.000000,400.000000) scale(0.100000,-0.100000)"
fill="#000000" stroke="none">
<path d="M1667 2908 c-8 -18 -107 -258 -222 -533 -114 -275 -282 -678 -373
-895 -90 -217 -166 -401 -169 -407 -4 -10 38 -13 190 -13 194 0 196 0 203 23
4 12 48 121 99 242 51 121 186 445 300 720 114 275 243 584 286 687 44 103 79
192 79 198 0 6 -67 10 -190 10 l-190 0 -13 -32z"/>
<path d="M2211 2918 c-5 -13 -59 -144 -121 -293 -62 -148 -123 -295 -135 -325
-12 -30 -51 -122 -85 -205 -35 -82 -137 -328 -227 -545 -90 -217 -172 -415
-183 -440 l-19 -45 71 -3 c39 -2 74 1 79 5 6 7 125 288 204 483 12 30 53 127
89 215 37 88 137 329 223 535 86 206 180 433 209 503 30 71 54 130 54 133 0 2
-34 4 -75 4 -69 0 -76 -2 -84 -22z"/>
<path d="M2670 2925 c-160 -45 -260 -174 -260 -336 0 -137 72 -250 198 -311
58 -28 77 -32 142 -32 139 1 245 65 310 186 32 59 34 69 34 158 0 89 -2 99
-34 158 -18 35 -53 81 -78 102 -82 72 -210 103 -312 75z"/>
</g>
</svg>
