<?xml version="1.0" encoding="utf-8"?>
<!-- Generator: Adobe Illustrator 16.0.0, SVG Export Plug-In . SVG Version: 6.00 Build 0)  -->
<!DOCTYPE svg PUBLIC "-//W3C//DTD SVG 1.1//EN" "http://www.w3.org/Graphics/SVG/1.1/DTD/svg11.dtd">
<svg version="1.1" xmlns="http://www.w3.org/2000/svg" xmlns:xlink="http://www.w3.org/1999/xlink" x="0px" y="0px"
	 width="122.75px" height="140.677px" viewBox="0 0 122.75 140.677" enable-background="new 0 0 122.75 140.677"
	 xml:space="preserve">
<g id="Layer_21" display="none">
	<rect x="-256.453" y="-264.662" display="inline" fill="#FFFFFF" width="1200" height="704"/>
</g>
<g id="Layer_17">
	<circle fill="#713389" cx="104.746" cy="18.004" r="18.004"/>
	<path fill="#713389" d="M73.687,109.503c-2.543-2.684-14.294-16.807,0.309-35.29h-0.001c3.345-3.269,5.423-7.83,5.423-12.877
		c0-9.943-8.06-18.003-18.004-18.003c-0.025,0-0.051,0.001-0.077,0.001l0.001-0.001c0,0-24.368-0.412-25.333-24.933h-0.001
		c0.003-0.132,0.006-0.264,0.006-0.396C36.008,8.061,27.947,0,18.004,0C8.061,0,0,8.061,0,18.004C0,27.774,7.784,35.727,17.49,36
		l-0.005,0.007c0,0,23.678-0.717,25.931,24.923v-0.001c-0.002,0.136-0.004,0.271-0.004,0.407c0,4.954,2,9.441,5.239,12.696l0,0
		c0,0,0.001,0.001,0.002,0.002c0.035,0.035,0.069,0.069,0.104,0.104c1.393,1.405,15.712,16.691-0.093,35.826l0,0
		c-3.247,3.256-5.252,7.749-5.252,12.709c0,9.943,8.06,18.003,18.002,18.003c9.944,0,18.004-8.061,18.004-18.003
		C79.417,117.474,77.212,112.79,73.687,109.503z"/>
	<g>
		<path fill="#713389" d="M194.746,81.869l-20.434-30.453c-0.528-0.659-0.791-1.714-0.791-2.637c0-2.504,1.845-4.35,4.351-4.35
			c1.45,0,2.636,0.659,3.427,1.713l17.797,27.553l17.798-27.553c0.791-1.055,1.978-1.713,3.427-1.713
			c2.505,0,4.351,1.846,4.351,4.35c0,0.923-0.264,1.979-0.791,2.637l-20.566,30.453v24.258c0,2.373-1.978,4.218-4.35,4.218
			c-2.374,0-4.219-1.845-4.219-4.218V81.869z"/>
		<path fill="#713389" d="M260.269,43.11c0-2.373,1.846-4.218,4.219-4.218c2.374,0,4.351,1.845,4.351,4.218v2.636
			c0,2.374-1.978,4.219-4.351,4.219c-2.373,0-4.219-1.845-4.219-4.219V43.11z M260.269,61.831c0-2.374,1.846-4.219,4.219-4.219
			c2.374,0,4.351,1.845,4.351,4.219v44.296c0,2.373-1.978,4.218-4.351,4.218c-2.373,0-4.219-1.845-4.219-4.218V61.831z"/>
		<path fill="#713389" d="M313.663,48.648c0-2.373,1.845-4.219,4.218-4.219c2.373,0,4.351,1.846,4.351,4.219v54.05h30.98
			c1.714,0.396,2.769,2.109,2.769,3.824c0,1.977-1.318,3.559-3.559,3.822h-34.408c-2.373,0-4.351-1.845-4.351-4.218V48.648z"/>
		<path fill="#713389" d="M395.532,43.11c0-2.373,1.846-4.218,4.219-4.218c2.372,0,4.351,1.845,4.351,4.218v2.636
			c0,2.374-1.979,4.219-4.351,4.219c-2.373,0-4.219-1.845-4.219-4.219V43.11z M395.532,61.831c0-2.374,1.846-4.219,4.219-4.219
			c2.372,0,4.351,1.845,4.351,4.219v44.296c0,2.373-1.979,4.218-4.351,4.218c-2.373,0-4.219-1.845-4.219-4.218V61.831z"/>
		<path fill="#713389" d="M458.813,61.699c3.691-4.746,9.492-4.746,14.766-4.746c12.919,0,17.929,8.569,17.929,20.039v29.135
			c0,2.373-1.978,4.218-4.35,4.218c-2.374,0-4.22-1.845-4.22-4.218V79.364c0-7.119,0-14.765-11.997-14.765
			c-10.15,0-13.446,3.428-13.446,11.075v30.453c0,2.373-1.978,4.218-4.351,4.218s-4.219-1.845-4.219-4.218
			c0-14.897,0-44.692,0-44.296c0-2.374,1.846-4.219,4.219-4.219s4.351,1.714,4.351,4.087H458.813z"/>
		<path fill="#713389" d="M572.982,58.403c0.792-0.527,1.715-0.791,2.506-0.791c1.318,0,2.505,0.659,3.428,1.845
			c0.526,0.791,0.79,1.583,0.79,2.505c0,1.319-0.526,2.636-1.713,3.428l-12.656,9.754l15.16,29.398
			c0.132,0.396,0.132,0.792,0.132,1.187c0,1.846-1.187,3.56-2.9,4.218c-0.527,0.264-1.187,0.396-1.713,0.396
			c-1.714,0-3.033-1.055-3.691-2.768L558.35,80.418l-14.765,10.942v14.766c0,2.373-1.979,4.218-4.352,4.218
			c-2.371,0-4.219-1.845-4.219-4.218V43.901c0-2.373,1.848-4.218,4.219-4.218c2.373,0,4.352,1.845,4.352,4.218v36.913
			L572.982,58.403z"/>
		<path fill="#713389" d="M640.615,111.003c-13.578,0-23.07-4.877-23.07-19.643V80.418c0-16.875,3.823-23.465,21.488-23.465
			c18.325,0,20.961,6.987,20.961,20.83v5.537c0,2.373-1.978,4.219-4.35,4.219h-29.531v4.614c0,8.437,6.329,11.206,14.371,11.206
			c3.955,0,10.809-0.264,15.16-1.318c1.714,0.395,2.769,2.109,2.769,3.822c0,2.109-1.318,3.692-3.56,3.957
			C650.238,110.608,644.307,111.003,640.615,111.003z M626.113,79.892h25.312v-4.614c0-6.328-1.449-10.679-12.392-10.679
			C630.86,64.599,626.509,65.391,626.113,79.892z"/>
		<path fill="#713389" d="M702.842,61.831c0-2.374,1.846-4.219,4.219-4.219c2.371,0,4.349,1.714,4.349,4.087h1.318
			c3.429-4.483,8.834-4.746,13.844-4.746c2.109,0,3.822,1.713,3.822,3.823c0,1.978-1.713,3.823-3.822,3.823h-1.714
			c-10.152,0-13.448,3.428-13.448,11.075v30.453c0,2.373-1.978,4.218-4.349,4.218c-2.373,0-4.219-1.845-4.219-4.218
			C702.842,91.229,702.842,61.435,702.842,61.831z"/>
	</g>
</g>
<g id="Layer_5" display="none">
	<rect x="160.547" y="86.638" display="inline" fill="none" width="508.667" height="40.667"/>
	
		<text transform="matrix(1 0 0 1 273.6714 113.2773)" display="inline" fill="#FFFFFF" font-family="'Panton-Bold'" font-size="36" letter-spacing="14">AFFILIATE</text>
</g>
<g id="Layer_19">
	<g>
		<path opacity="0.2" fill="#1E1E1E" d="M110.668,35.011c6.667-2.028,12.083-9.139,12.083-17.007c0-6.215-3.149-11.694-7.938-14.929
			C114.812,3.075,126.189,20.997,110.668,35.011z"/>
	</g>
	<g>
		<path opacity="0.2" fill="#1E1E1E" d="M73.687,109.503c3.525,3.286,5.731,7.97,5.731,13.17c0,9.943-8.06,18.003-18.004,18.003
			C61.413,140.677,82.024,133.087,73.687,109.503z"/>
	</g>
	<g>
		<path opacity="0.2" fill="#1E1E1E" d="M73.687,109.503c-2.543-2.684-14.294-16.807,0.309-35.29h-0.001
			C73.995,74.214,52.327,90.324,73.687,109.503z"/>
	</g>
</g>
</svg>
